<mxfile host="app.diagrams.net" modified="2024-06-19T04:32:04.604Z" agent="Mozilla/5.0 (Windows NT 10.0; Win64; x64) AppleWebKit/537.36 (KHTML, like Gecko) Chrome/125.0.0.0 Safari/537.36" version="24.5.5" etag="MZU99cfRwOMbpxRRqtdX" type="github">
  <diagram name="Trang-1" id="H_r4qNMvlrrulFxureWI">
    <mxGraphModel>
      <root>
        <mxCell id="0" />
        <mxCell id="1" parent="0" />
      </root>
    </mxGraphModel>
  </diagram>
</mxfile>
